<svg xmlns="http://www.w3.org/2000/svg" width="56" height="56"><path fill="#282630" d="M55.13 43.127c0 5.785-4.707 10.492-10.493 10.492-5.619 0-10.22-4.44-10.48-9.996a30.536 30.536 0 00-16.163 8.422l-2.931 2.932A3.472 3.472 0 0112.592 56a3.472 3.472 0 01-2.472-1.023l-8.218-8.219a3.499 3.499 0 010-4.942l5.291-5.292a39.598 39.598 0 006.66-8.88 9.148 9.148 0 01-5.5-9.058 10.475 10.475 0 01-3.823-8.094C4.53 4.707 9.237 0 15.022 0c2.47 0 4.864.883 6.742 2.456A7.175 7.175 0 0127.153 0c2 0 3.894.84 5.236 2.285A14.503 14.503 0 0139.473.447C47.497.447 54.026 6.975 54.026 15c0 2.575-.67 5.068-1.946 7.274a8.089 8.089 0 013.05 6.306c0 2.7-1.374 5.197-3.552 6.674a10.411 10.411 0 013.552 7.873zM14.857 25.695a38.927 38.927 0 001.486-3.522l.49-1.346a10.54 10.54 0 01-1.81.157c-1.596 0-3.11-.358-4.466-.998.276 2.51 1.918 4.74 4.3 5.709zm20.64 12.279a10.439 10.439 0 01-2.96-3.597l-2.744 2.744h2.696a1.094 1.094 0 010 2.188h-5.336a1.094 1.094 0 01-.773-1.868l5.337-5.337a10.602 10.602 0 01-.007-4.793 14.453 14.453 0 01-2.659-2.152l-7.576 7.576a1.093 1.093 0 01-1.825-1.075l2.457-8.589a10.454 10.454 0 01-2.904-2.358l-.805 2.21A41.845 41.845 0 018.74 38.07l-5.29 5.293c-.51.51-.51 1.339 0 1.848l.86.861 5.523-5.522a1.094 1.094 0 011.546 1.547l-5.522 5.522 5.811 5.81c.51.51 1.339.51 1.849 0l2.93-2.93a32.344 32.344 0 014.721-3.896c.039-.057.083-.112.133-.162l.795-.795c.21-.21.21-.55 0-.76l-1.334-1.334a.536.536 0 00-.76 0l-3.168 3.168a1.094 1.094 0 01-1.547-1.547l3.168-3.168a2.707 2.707 0 011.927-.798 2.71 2.71 0 011.927.798l1.334 1.334c.374.375.626.84.735 1.345a32.652 32.652 0 019.913-3.302c.2-1.197.607-2.347 1.208-3.408zM26.766 24.35a10.516 10.516 0 01-2.625-.43l-1.225 4.28zm26.177 18.776a8.254 8.254 0 00-3.991-7.098 1.094 1.094 0 01.185-1.958 5.89 5.89 0 003.806-5.49 5.89 5.89 0 00-2.122-4.512c-2.762 3.402-6.865 5.435-11.155 5.484h-.013a1.094 1.094 0 01-1.091-1.166c.037-.58.541-1.013 1.122-1.022 3.893-.058 7.607-2.05 9.942-5.335.032-.045.068-.087.105-.125a12.297 12.297 0 002.108-6.96c-.028-6.576-5.273-12.027-11.844-12.3a12.327 12.327 0 00-7.26 1.986 1.094 1.094 0 01-1.497-.296 4.963 4.963 0 00-4.084-2.148 4.977 4.977 0 00-3.852 1.843 10.454 10.454 0 012.228 6.462c0 .614-.506 1.11-1.124 1.094-.595-.017-1.062-.525-1.064-1.12a8.273 8.273 0 00-2.08-5.469c-.069-.078-.146-.15-.219-.223a8.332 8.332 0 00-6.02-2.587c-4.579 0-8.304 3.726-8.304 8.305 0 4.58 3.725 8.305 8.304 8.305 1.3 0 2.548-.294 3.707-.874a1.094 1.094 0 011.413.392 8.273 8.273 0 008.419 3.735 1.096 1.096 0 011.055.417 12.514 12.514 0 003.899 3.37c.463.256.669.808.507 1.311a8.356 8.356 0 00-.027 4.997 8.27 8.27 0 003.566 4.601c.371.23.58.668.5 1.128a1.15 1.15 0 01-.202.458 8.249 8.249 0 00-1.525 4.94c.075 4.439 3.694 8.068 8.132 8.158 4.657.094 8.476-3.667 8.476-8.303z"/><path fill="#282630" d="M39.515 5.71h-.051a1.094 1.094 0 000 2.188h.043a1.094 1.094 0 00.008-2.188zm4.699 1.304a1.094 1.094 0 00-1.12 1.88A7.142 7.142 0 0146.568 15a1.094 1.094 0 002.188 0 9.34 9.34 0 00-4.542-7.987zM14.407 37.51a1.1 1.1 0 00-.773-.32c-.288 0-.57.117-.774.32-.203.204-.32.486-.32.775 0 .288.117.57.32.773a1.099 1.099 0 001.547 0 1.1 1.1 0 00.32-.773 1.1 1.1 0 00-.32-.774z"/></svg>