<svg xmlns="http://www.w3.org/2000/svg" width="56" height="56"><path fill="#282630" d="M52.452 44.8a1.094 1.094 0 11-1.835-1.192c5.08-7.823 3.972-18.296-2.634-24.902-7.762-7.761-20.39-7.761-28.152 0-7.762 7.762-7.762 20.39 0 28.152 6.615 6.615 17.097 7.717 24.923 2.62a1.094 1.094 0 011.194 1.834 22.148 22.148 0 01-14.225 3.457 22.135 22.135 0 01-13.439-6.364 21.967 21.967 0 01-5.031-7.78H5.469a1.094 1.094 0 010-2.188h7.086a22.216 22.216 0 01-.683-4.204H7a1.094 1.094 0 010-2.187h4.837a22.24 22.24 0 01.543-4.204H1.094a1.094 1.094 0 010-2.188h11.904a21.922 21.922 0 011.94-4.204H8.55a1.094 1.094 0 010-2.188h7.794c.028 0 .055.003.083.005a22.182 22.182 0 011.857-2.108 21.962 21.962 0 0110.771-5.925V8.447a3.725 3.725 0 01-2.821-3.608 3.723 3.723 0 013.719-3.719h7.875a3.723 3.723 0 013.719 3.719 3.725 3.725 0 01-2.822 3.608v2.78a21.963 21.963 0 0110.805 5.932c3.6 3.6 5.86 8.368 6.362 13.425a22.164 22.164 0 01-3.44 14.215zm-22.5-38.43h7.876c.844 0 1.531-.687 1.531-1.531 0-.844-.687-1.531-1.531-1.531h-7.875c-.845 0-1.532.687-1.532 1.53 0 .845.687 1.532 1.532 1.532zm1.29 4.488a22.285 22.285 0 015.296-.004V8.558h-5.295z"/><path fill="#282630" d="M48.754 46.54a1.097 1.097 0 00-1.094 1.094 1.097 1.097 0 001.094 1.093 1.1 1.1 0 00.773-.32c.203-.203.32-.486.32-.773 0-.288-.116-.57-.32-.774a1.104 1.104 0 00-.773-.32zm2.121-13.752c0 9.356-7.612 16.967-16.968 16.967-9.355 0-16.967-7.612-16.967-16.968 0-9.355 7.612-16.967 16.967-16.967 9.356 0 16.968 7.612 16.968 16.968zm-2.188 0c0-8.15-6.63-14.78-14.78-14.78-8.15 0-14.78 6.63-14.78 14.78 0 8.15 6.63 14.78 14.78 14.78 8.15 0 14.78-6.63 14.78-14.78z"/><path fill="#282630" d="M40.822 24.32a1.094 1.094 0 011.547 1.547l-.16.16-5.258 5.257a3.403 3.403 0 01-3.048 4.9 3.403 3.403 0 01-3.399-3.398c0-.539.127-1.048.35-1.502L28.43 28.86a1.094 1.094 0 011.547-1.547l2.425 2.425c.453-.224.962-.35 1.501-.35.539 0 1.048.126 1.501.35zm-5.708 8.466a1.212 1.212 0 00-2.422-.001 1.212 1.212 0 002.422.001zM45.597 31.7h-1.013a1.094 1.094 0 000 2.188h1.013a1.094 1.094 0 000-2.188zm-22.37-.02h-1.013a1.094 1.094 0 000 2.188h1.013a1.094 1.094 0 000-2.188zm10.697-8.48c.604 0 1.093-.489 1.093-1.093v-1.013a1.094 1.094 0 00-2.187 0v1.013c0 .604.49 1.094 1.094 1.094zm-.03 19.17c-.604 0-1.094.49-1.094 1.094v1.013a1.094 1.094 0 002.188 0v-1.013c0-.604-.49-1.094-1.094-1.094zm-32.8-3.93c-.288 0-.57.117-.774.32-.203.204-.32.486-.32.774 0 .288.117.57.32.773.204.203.486.32.774.32.287 0 .57-.117.773-.32.203-.203.32-.486.32-.773 0-.288-.117-.57-.32-.774a1.102 1.102 0 00-.773-.32z"/></svg>