<svg xmlns="http://www.w3.org/2000/svg" width="56" height="56"><path fill="#282630" d="M37.844 0c-.604 0-1.094.49-1.094 1.094v5.031a1.094 1.094 0 002.188 0V1.094C38.938.49 38.447 0 37.843 0zm-25.16 34.13a1.094 1.094 0 100 2.188 1.094 1.094 0 000-2.188z"/><path fill="#282630" d="M50.224 36.064a4.377 4.377 0 01-2.18 6.56c.467.7.733 1.539.733 2.435a4.376 4.376 0 01-2.928 4.13c.468.696.741 1.533.741 2.432a4.38 4.38 0 01-4.375 4.375H30.453c-5.116 0-7.22-.549-11.039-1.546-.475-.125-.99-.26-1.546-.402a3.285 3.285 0 01-2.997 1.948H3.934c-.604 0-1.094-.49-1.094-1.093v-26.25c0-.604.49-1.094 1.094-1.094H14.87c1.344 0 2.5.812 3.008 1.97 6.703-1.666 15.586-5.553 15.586-12.47v-1.094a4.38 4.38 0 014.375-4.375 4.381 4.381 0 014.372 4.27c.034.236.059.61.077 1.257.1 3.393-.413 7.204-1.677 10.442h8.165a4.376 4.376 0 111.447 8.505zM15.965 30.84c0-.603-.49-1.094-1.094-1.094H5.027V53.81h9.844c.603 0 1.094-.49 1.094-1.094zm35 1.094a2.19 2.19 0 00-2.188-2.188H34.56a1.094 1.094 0 010-2.187h3.683c2.379-5.285 1.786-11.119 1.786-11.594v-.003a2.191 2.191 0 00-2.188-2.184 2.19 2.19 0 00-2.188 2.187v1.094c0 8.171-9.584 12.773-17.5 14.659v20.145c.66.168 1.264.326 1.815.47 3.762.983 5.65 1.476 10.486 1.476h11.762a2.19 2.19 0 002.188-2.188 2.19 2.19 0 00-2.188-2.187h-3.281a1.094 1.094 0 010-2.188h5.469c1.208 0 2.187-.98 2.187-2.187a2.18 2.18 0 00-2.188-2.188h-3.28a1.094 1.094 0 010-2.187h5.468a2.187 2.187 0 100-4.375H43.31a1.094 1.094 0 010-2.188h5.469c1.208 0 2.187-.98 2.187-2.187z"/><path fill="#282630" d="M12.684 38.5c-.604 0-1.094.49-1.094 1.094v8.75a1.094 1.094 0 002.188 0v-8.75c0-.604-.49-1.094-1.094-1.094zm16.415-24.72h-4.375a1.094 1.094 0 000 2.188h4.375a1.094 1.094 0 000-2.188zm21.87 0h-4.375a1.094 1.094 0 000 2.188h4.375a1.094 1.094 0 000-2.188zM47.9 4.82a1.094 1.094 0 00-1.547 0L43.26 7.913a1.094 1.094 0 001.547 1.547L47.9 6.367a1.094 1.094 0 000-1.547zM32.43 7.913L29.337 4.82a1.094 1.094 0 00-1.547 1.547l3.093 3.093a1.094 1.094 0 001.547-1.547z"/></svg>