<svg xmlns="http://www.w3.org/2000/svg" width="56" height="56" viewBox="0 0 56 56"><g><g><g/><g><g><g><path fill="#282630" d="M52.452 44.8a1.094 1.094 0 1 1-1.835-1.192c5.08-7.823 3.972-18.296-2.634-24.902-7.762-7.761-20.39-7.761-28.152 0-7.762 7.762-7.762 20.39 0 28.152 6.615 6.615 17.097 7.717 24.923 2.62a1.094 1.094 0 0 1 1.194 1.834 22.148 22.148 0 0 1-14.225 3.457 22.135 22.135 0 0 1-13.439-6.364 21.967 21.967 0 0 1-5.031-7.78H5.469a1.094 1.094 0 0 1 0-2.188h7.086a22.216 22.216 0 0 1-.683-4.204H7a1.094 1.094 0 0 1 0-2.187h4.837a22.24 22.24 0 0 1 .543-4.204H1.094a1.094 1.094 0 0 1 0-2.188h11.904a21.922 21.922 0 0 1 1.94-4.204H8.55a1.094 1.094 0 0 1 0-2.188h7.794c.028 0 .055.003.083.005a22.182 22.182 0 0 1 1.857-2.108 21.962 21.962 0 0 1 10.771-5.925V8.447a3.725 3.725 0 0 1-2.821-3.608 3.723 3.723 0 0 1 3.719-3.719h7.875a3.723 3.723 0 0 1 3.719 3.719 3.725 3.725 0 0 1-2.822 3.608v2.78a21.963 21.963 0 0 1 10.805 5.932c3.6 3.6 5.86 8.368 6.362 13.425a22.164 22.164 0 0 1-3.44 14.215zm-22.5-38.43h7.876c.844 0 1.531-.687 1.531-1.531 0-.844-.687-1.531-1.531-1.531h-7.875c-.845 0-1.532.687-1.532 1.53 0 .845.687 1.532 1.532 1.532zm1.29 4.488a22.285 22.285 0 0 1 5.296-.004V8.558h-5.295z"/></g><g><path fill="#282630" d="M48.754 46.54a1.097 1.097 0 0 0-1.094 1.094 1.097 1.097 0 0 0 1.094 1.093 1.1 1.1 0 0 0 .773-.32c.203-.203.32-.486.32-.773 0-.288-.116-.57-.32-.774a1.104 1.104 0 0 0-.773-.32z"/></g><g><path fill="#282630" d="M50.875 32.788c0 9.356-7.612 16.967-16.968 16.967-9.355 0-16.967-7.612-16.967-16.968 0-9.355 7.612-16.967 16.967-16.967 9.356 0 16.968 7.612 16.968 16.968zm-2.188 0c0-8.15-6.63-14.78-14.78-14.78-8.15 0-14.78 6.63-14.78 14.78 0 8.15 6.63 14.78 14.78 14.78 8.15 0 14.78-6.63 14.78-14.78z"/></g><g><path fill="#282630" d="M40.822 24.32a1.094 1.094 0 0 1 1.547 1.547l-.16.16-5.258 5.257a3.403 3.403 0 0 1-3.048 4.9 3.403 3.403 0 0 1-3.399-3.398c0-.539.127-1.048.35-1.502L28.43 28.86a1.094 1.094 0 0 1 1.547-1.547l2.425 2.425c.453-.224.962-.35 1.501-.35.539 0 1.048.126 1.501.35zm-5.708 8.466c0-.668-.543-1.211-1.21-1.211-.669 0-1.212.543-1.212 1.21 0 .669.543 1.212 1.211 1.212s1.211-.543 1.211-1.211z"/></g><g><path fill="#282630" d="M45.597 31.7h-1.013a1.094 1.094 0 0 0 0 2.188h1.013a1.094 1.094 0 0 0 0-2.188z"/></g><g><path fill="#282630" d="M23.227 31.68h-1.013a1.094 1.094 0 0 0 0 2.188h1.013a1.094 1.094 0 0 0 0-2.188z"/></g><g><path fill="#282630" d="M33.924 23.2c.604 0 1.093-.489 1.093-1.093v-1.013a1.094 1.094 0 0 0-2.187 0v1.013c0 .604.49 1.094 1.094 1.094z"/></g><g><path fill="#282630" d="M33.894 42.37c-.604 0-1.094.49-1.094 1.094v1.013a1.094 1.094 0 0 0 2.188 0v-1.013c0-.604-.49-1.094-1.094-1.094z"/></g><g><path fill="#282630" d="M1.094 38.44c-.288 0-.57.117-.774.32-.203.204-.32.486-.32.774 0 .288.117.57.32.773.204.203.486.32.774.32.287 0 .57-.117.773-.32.203-.203.32-.486.32-.773 0-.288-.117-.57-.32-.774a1.102 1.102 0 0 0-.773-.32z"/></g></g></g></g></g></svg>