<svg xmlns="http://www.w3.org/2000/svg" width="121" height="24"><path fill="#ffdd63" d="M12 17.27L18.18 21l-1.64-7.03L22 9.24l-7.19-.61L12 2 9.19 8.63 2 9.24l5.46 4.73L5.82 21zm25 0L43.18 21l-1.64-7.03L47 9.24l-7.19-.61L37 2l-2.81 6.63-7.19.61 5.46 4.73L30.82 21zm24 0L67.18 21l-1.64-7.03L71 9.24l-7.19-.61L61 2l-2.81 6.63-7.19.61 5.46 4.73L54.82 21zm24 0L91.18 21l-1.64-7.03L95 9.24l-7.19-.61L85 2l-2.81 6.63-7.19.61 5.46 4.73L78.82 21zm24 0l6.18 3.73-1.64-7.03L119 9.24l-7.19-.61L109 2l-2.81 6.63-7.19.61 5.46 4.73-1.64 7.03z"/></svg>